<svg width="36" height="20" viewBox="0 0 36 20" fill="none" xmlns="http://www.w3.org/2000/svg">
<path d="M21.4566 1.51294C21.655 2.36991 22.4021 2.98828 23.281 3.02302L33.4912 3.42654C34.8718 3.4811 35.7825 4.88568 35.269 6.16832L33.4237 10.7777C33.2536 11.2024 32.8423 11.4808 32.3848 11.4808C31.9289 11.4808 31.5185 11.7574 31.3475 12.1801L29.0018 17.9772C28.2689 19.7886 25.6403 19.5819 25.1994 17.6782L24.1229 13.0296C23.9129 12.1228 23.1052 11.4808 22.1745 11.4808H2.00328C0.420234 11.4808 -0.535319 9.7289 0.321771 8.39796L3.64762 3.23337C4.03094 2.63812 4.70039 2.28989 5.40784 2.31776L13.9154 2.65287C14.3005 2.66804 14.6819 2.57159 15.0135 2.37512L18.5603 0.273898C19.6963 -0.399115 21.1588 0.22655 21.4566 1.51294Z" fill="url(#paint0_linear_143_44)"/>
<defs>
<linearGradient id="paint0_linear_143_44" x1="17.8879" y1="-2.45037" x2="17.8879" y2="19.2272" gradientUnits="userSpaceOnUse">
<stop offset="0.5" stop-color="#2AF598"/>
<stop offset="0.8" stop-color="#08B3E5"/>
</linearGradient>
</defs>
</svg>
