<svg width="427" height="169" viewBox="0 0 427 169" fill="none" xmlns="http://www.w3.org/2000/svg">
<path d="M372.51 118.567C373.252 120.441 375.046 121.687 377.062 121.727L422.073 122.606C426.232 122.688 428.479 127.517 425.861 130.751L396.793 166.665C395.844 167.838 394.415 168.519 392.906 168.519H5.00952C0.233509 168.519 -1.82388 162.463 1.96374 159.554L57.9015 116.587C58.8016 115.896 59.9102 115.531 61.045 115.553L177.679 117.831C178.187 117.841 178.695 117.773 179.183 117.63L250.642 96.6837C251.733 96.3641 252.682 95.6824 253.333 94.7511L318.104 2.13527C320.387 -1.12947 325.385 -0.543189 326.85 3.16129L372.51 118.567Z" fill="url(#paint0_linear_143_34)"/>
<defs>
<linearGradient id="paint0_linear_143_34" x1="215.673" y1="-21.4772" x2="215.673" y2="168.518" gradientUnits="userSpaceOnUse">
<stop offset="0.5" stop-color="#2AF598"/>
<stop offset="0.8" stop-color="#08B3E5"/>
</linearGradient>
</defs>
</svg>
